<svg xmlns="http://www.w3.org/2000/svg" width="322" height="75" viewBox="0 0 322 75">
  <path fill="#FFF" stroke="#FFF" stroke-width=".275" d="M322.92733,217 C324.031899,217 324.92733,217.895431 324.92733,219 L324.928075,261.126636 C324.975781,261.811812 325,262.505819 325,263.207926 C325,278.533433 313.460581,290 298,290 C282.427386,290 271,278.533433 271,263.207926 C271,247.882418 282.427386,236.415851 298,236.415851 C304.981278,236.415851 311.163029,238.75389 315.843826,242.729517 L315.843557,221.541886 C315.843557,219.033472 317.877029,217 320.385444,217 L322.92733,217 Z M437,236 L436.999615,274.730336 C436.992764,280.950583 436.896727,285.304323 436.889876,289.530824 L436.88949,290 L415.649055,290 C402.962262,290 396,284.06 396,274.725714 C396,268.477143 399.558488,263.925714 405.1283,262.074286 C400.564149,260.145714 397.779243,255.825714 397.779243,250.502857 C397.779243,241.962167 404.506785,236.135145 416.317996,236.002319 L416.732074,236 L437,236 Z M459.267926,236 C471.335851,236 478.220757,241.862857 478.220757,250.502857 C478.220757,255.825714 475.435851,260.145714 470.8717,262.074286 C476.441512,263.925714 480,268.477143 480,274.725714 C480,284.06 473.037738,290 460.350945,290 L439.11051,290 C439.11051,285.624262 439.00749,281.180962 439.000385,274.730336 L439,236 L459.267926,236 Z M355.810017,237 C370.691849,237 381.256813,245.727227 381.484017,262.845679 C381.490864,263.361539 381.461776,264.119474 381.396754,265.119483 C381.328352,266.17145 380.455158,266.989712 379.400969,266.989712 L339.110557,266.989712 C339.110557,273.633694 342.723978,281.27572 356.378026,281.27572 C364.088827,281.27572 371.625406,278.928339 378.987763,274.233577 L379.553745,273.867797 C380.246813,273.413964 381.17656,273.607903 381.630392,274.300972 C381.757029,274.494364 381.837254,274.714408 381.864806,274.943925 C382.131013,277.161529 382.004084,278.583221 381.484017,279.209 C380.452051,280.45073 370.901843,290 356.378026,290 C340.58738,290 329,278.876543 329,263.390947 C329,248.341564 340.019372,237 355.810017,237 Z M241,237 C256.460581,237 268,248.341564 268,263.5 C268,278.658436 256.460581,290 241,290 C225.427386,290 214,278.658436 214,263.5 C214,248.341564 225.427386,237 241,237 Z M187.324263,237 C201.609977,237 210,246.164905 210,258.780127 L210,284.5 C210,286.432997 208.432997,288 206.5,288 L202.249433,288 C201.144864,288 200.249433,287.104569 200.249433,286 L200.249433,259.534884 C200.249433,251.340381 195.827664,245.625793 186.303855,245.625793 C170.081633,245.625793 169.757188,252.77957 169.750699,261.683184 L169.750567,288 L162,288 C160.895431,288 160,287.104569 160,286 L160,252.293298 C160,241.393572 179.160998,237 187.324263,237 Z M426.092452,266.857143 L416.499999,266.857143 C410.156602,266.857143 406.984904,269.248571 406.984904,273.954286 C406.984904,278.8 409.81666,281.267725 415.407032,281.35746 L415.726414,281.36 L420.754716,281.36 C424.704219,281.36 426.043735,279.500921 426.09114,273.884474 L426.092452,273.568571 L426.092452,266.857143 Z M459.500001,266.857143 L449.907548,266.857143 L449.907548,273.568571 C449.907548,279.431429 451.222642,281.36 455.245284,281.36 L460.273586,281.36 C466.075473,281.36 469.015096,278.891429 469.015096,273.954286 C469.015096,269.248571 465.843398,266.857143 459.500001,266.857143 Z M241,245.72428 C230.804979,245.72428 223.634855,253.467078 223.634855,263.5 C223.634855,273.314815 230.804979,281.27572 241,281.27572 C251.195021,281.27572 258.365145,273.314815 258.365145,263.5 C258.365145,253.467078 251.195021,245.72428 241,245.72428 Z M298,245.236287 C287.804979,245.236287 280.634855,253.064424 280.634855,263.207926 C280.634855,273.130916 287.804979,281.179564 298,281.179564 C308.195021,281.179564 315.365145,273.130916 315.365145,263.207926 C315.365145,253.064424 308.195021,245.236287 298,245.236287 Z M355.810017,245.72428 C346.721876,245.72428 340.473779,250.958848 339.224159,258.8107 L371.259858,258.8107 C370.010238,250.958848 364.443752,245.72428 355.810017,245.72428 Z M426.169811,244.64 L417.350942,244.64 C411.703772,244.64 408.764149,247.185714 408.764149,251.505714 C408.764149,255.742637 411.591797,258.27286 417.02815,258.36861 L417.350942,258.371429 L426.169811,258.371429 L426.169811,244.64 Z M458.649058,244.64 L449.830189,244.64 L449.830189,258.371429 L458.649058,258.371429 C464.296228,258.371429 467.235851,255.825714 467.235851,251.505714 C467.235851,247.185714 464.296228,244.64 458.649058,244.64 Z" transform="translate(-159 -216)"/>
</svg>
